<svg width="0" height="0" class="hidden">
  <symbol xmlns="http://www.w3.org/2000/svg" viewBox="0 0 22 22" id="comment">
    <path d="M9.87513 11C9.87513 11.2984 9.99366 11.5845 10.2046 11.7955C10.4156 12.0065 10.7018 12.125 11.0001 12.125C11.2985 12.125 11.5846 12.0065 11.7956 11.7955C12.0066 11.5845 12.1251 11.2984 12.1251 11C12.1251 10.7016 12.0066 10.4155 11.7956 10.2045C11.5846 9.99353 11.2985 9.875 11.0001 9.875C10.7018 9.875 10.4156 9.99353 10.2046 10.2045C9.99366 10.4155 9.87513 10.7016 9.87513 11ZM14.5626 11C14.5626 11.2984 14.6812 11.5845 14.8921 11.7955C15.1031 12.0065 15.3893 12.125 15.6876 12.125C15.986 12.125 16.2721 12.0065 16.4831 11.7955C16.6941 11.5845 16.8126 11.2984 16.8126 11C16.8126 10.7016 16.6941 10.4155 16.4831 10.2045C16.2721 9.99353 15.986 9.875 15.6876 9.875C15.3893 9.875 15.1031 9.99353 14.8921 10.2045C14.6812 10.4155 14.5626 10.7016 14.5626 11ZM5.18763 11C5.18763 11.2984 5.30616 11.5845 5.51714 11.7955C5.72812 12.0065 6.01426 12.125 6.31263 12.125C6.611 12.125 6.89715 12.0065 7.10813 11.7955C7.31911 11.5845 7.43763 11.2984 7.43763 11C7.43763 10.7016 7.31911 10.4155 7.10813 10.2045C6.89715 9.99353 6.611 9.875 6.31263 9.875C6.01426 9.875 5.72812 9.99353 5.51714 10.2045C5.30616 10.4155 5.18763 10.7016 5.18763 11ZM20.6845 6.93125C20.1548 5.67266 19.3954 4.54297 18.4275 3.57266C17.4663 2.60796 16.3252 1.84114 15.0689 1.31563C13.7798 0.774219 12.4111 0.5 11.0001 0.5H10.9533C9.53295 0.507031 8.15716 0.788281 6.86341 1.34141C5.61785 1.87232 4.48747 2.64049 3.53529 3.60312C2.5767 4.57109 1.82435 5.69609 1.30404 6.95C0.764977 8.24844 0.493102 9.62891 0.500133 11.0492C0.508086 12.6769 0.893161 14.2806 1.62513 15.7344V19.2969C1.62513 19.5828 1.73872 19.857 1.94091 20.0592C2.1431 20.2614 2.41732 20.375 2.70326 20.375H6.2681C7.72192 21.107 9.32559 21.492 10.9533 21.5H11.0025C12.4064 21.5 13.7681 21.2281 15.0501 20.6961C16.3001 20.1768 17.4369 19.419 18.397 18.4648C19.365 17.5063 20.1267 16.3859 20.6587 15.1367C21.2119 13.843 21.4931 12.4672 21.5001 11.0469C21.5072 9.61953 21.2306 8.23438 20.6845 6.93125ZM17.1431 17.1969C15.5001 18.8234 13.3204 19.7188 11.0001 19.7188H10.9603C9.54701 19.7117 8.1431 19.3602 6.90326 18.6992L6.70638 18.5938H3.40638V15.2938L3.30091 15.0969C2.63998 13.857 2.28841 12.4531 2.28138 11.0398C2.27201 8.70312 3.16498 6.50937 4.80326 4.85703C6.4392 3.20469 8.62591 2.29062 10.9626 2.28125H11.0025C12.1744 2.28125 13.3111 2.50859 14.3822 2.95859C15.4275 3.39687 16.365 4.02734 17.1712 4.83359C17.9751 5.6375 18.6079 6.57734 19.0462 7.62266C19.5009 8.70547 19.7283 9.85391 19.7236 11.0398C19.7095 13.3742 18.7931 15.5609 17.1431 17.1969Z" ></path>
  </symbol>
  <symbol xmlns="http://www.w3.org/2000/svg" viewBox="0 0 20 20" id="like">
    <path d="M18.7633 10.5094C19.157 9.98906 19.375 9.35156 19.375 8.68827C19.375 7.63593 18.7867 6.63984 17.8398 6.08437C17.5961 5.94139 17.3185 5.86614 17.0359 5.8664H11.4156L11.5563 2.98593C11.5891 2.28984 11.343 1.6289 10.8648 1.12499C10.6302 0.876621 10.3471 0.679008 10.0331 0.544365C9.71905 0.409721 9.38074 0.340909 9.03906 0.34218C7.82031 0.34218 6.74219 1.16249 6.41875 2.33671L4.40547 9.62578H1.375C0.960156 9.62578 0.625 9.96093 0.625 10.3758V18.907C0.625 19.3219 0.960156 19.657 1.375 19.657H15.468C15.6836 19.657 15.8945 19.6148 16.0891 19.5305C17.2047 19.0547 17.9242 17.9648 17.9242 16.7555C17.9242 16.4601 17.882 16.1695 17.7977 15.8883C18.1914 15.368 18.4094 14.7305 18.4094 14.0672C18.4094 13.7719 18.3672 13.4812 18.2828 13.2C18.6766 12.6797 18.8945 12.0422 18.8945 11.3789C18.8898 11.0836 18.8477 10.7906 18.7633 10.5094ZM2.3125 17.9695V11.3133H4.21094V17.9695H2.3125ZM17.2281 9.69609L16.7148 10.1414L17.0406 10.7367C17.148 10.9328 17.2036 11.153 17.2023 11.3766C17.2023 11.7633 17.0336 12.1312 16.743 12.3844L16.2297 12.8297L16.5555 13.425C16.6628 13.6211 16.7185 13.8413 16.7172 14.0648C16.7172 14.4516 16.5484 14.8195 16.2578 15.0726L15.7445 15.518L16.0703 16.1133C16.1776 16.3094 16.2333 16.5296 16.232 16.7531C16.232 17.2781 15.9227 17.7516 15.4445 17.9672H5.71094V11.2383L8.04297 2.78906C8.1031 2.57249 8.23219 2.38143 8.41066 2.24483C8.58914 2.10822 8.80728 2.03351 9.03203 2.03202C9.21016 2.03202 9.38594 2.08359 9.52656 2.18906C9.75859 2.36249 9.88281 2.62499 9.86875 2.9039L9.64375 7.5539H17.0125C17.4297 7.80937 17.6875 8.24062 17.6875 8.68827C17.6875 9.07499 17.5188 9.44062 17.2281 9.69609Z" ></path>
  </symbol>
  <symbol xmlns="http://www.w3.org/2000/svg" viewBox="0 0 20 20" id="save">
    <path d="M18.9367 4.87422L15.1258 1.06328C14.95 0.8875 14.7344 0.758594 14.5 0.688281V0.625H1.375C0.960156 0.625 0.625 0.960156 0.625 1.375V18.625C0.625 19.0398 0.960156 19.375 1.375 19.375H18.625C19.0398 19.375 19.375 19.0398 19.375 18.625V5.93359C19.375 5.53516 19.218 5.15547 18.9367 4.87422ZM7 2.3125H13V4.75H7V2.3125ZM17.6875 17.6875H2.3125V2.3125H5.5V5.5C5.5 5.91484 5.83516 6.25 6.25 6.25H13.75C14.1648 6.25 14.5 5.91484 14.5 5.5V2.82344L17.6875 6.01094V17.6875ZM10 8.35938C8.13672 8.35938 6.625 9.87109 6.625 11.7344C6.625 13.5977 8.13672 15.1094 10 15.1094C11.8633 15.1094 13.375 13.5977 13.375 11.7344C13.375 9.87109 11.8633 8.35938 10 8.35938ZM10 13.6094C8.96406 13.6094 8.125 12.7703 8.125 11.7344C8.125 10.6984 8.96406 9.85938 10 9.85938C11.0359 9.85938 11.875 10.6984 11.875 11.7344C11.875 12.7703 11.0359 13.6094 10 13.6094Z" ></path>
  </symbol>
  <symbol  xmlns="http://www.w3.org/2000/svg" viewBox="0 0 18 20" id="share">
    <path d="M14.625 13.5625C13.957 13.5625 13.3406 13.7969 12.8578 14.1883L8.00156 10.675C8.08288 10.2287 8.08288 9.77133 8.00156 9.325L12.8578 5.81172C13.3406 6.20312 13.957 6.4375 14.625 6.4375C16.1766 6.4375 17.4375 5.17656 17.4375 3.625C17.4375 2.07344 16.1766 0.8125 14.625 0.8125C13.0734 0.8125 11.8125 2.07344 11.8125 3.625C11.8125 3.89687 11.85 4.15703 11.9227 4.40547L7.31016 7.74531C6.62578 6.83828 5.53828 6.25 4.3125 6.25C2.24062 6.25 0.5625 7.92812 0.5625 10C0.5625 12.0719 2.24062 13.75 4.3125 13.75C5.53828 13.75 6.62578 13.1617 7.31016 12.2547L11.9227 15.5945C11.85 15.843 11.8125 16.1055 11.8125 16.375C11.8125 17.9266 13.0734 19.1875 14.625 19.1875C16.1766 19.1875 17.4375 17.9266 17.4375 16.375C17.4375 14.8234 16.1766 13.5625 14.625 13.5625ZM14.625 2.40625C15.2977 2.40625 15.8438 2.95234 15.8438 3.625C15.8438 4.29766 15.2977 4.84375 14.625 4.84375C13.9523 4.84375 13.4062 4.29766 13.4062 3.625C13.4062 2.95234 13.9523 2.40625 14.625 2.40625ZM4.3125 12.0625C3.17578 12.0625 2.25 11.1367 2.25 10C2.25 8.86328 3.17578 7.9375 4.3125 7.9375C5.44922 7.9375 6.375 8.86328 6.375 10C6.375 11.1367 5.44922 12.0625 4.3125 12.0625ZM14.625 17.5938C13.9523 17.5938 13.4062 17.0477 13.4062 16.375C13.4062 15.7023 13.9523 15.1562 14.625 15.1562C15.2977 15.1562 15.8438 15.7023 15.8438 16.375C15.8438 17.0477 15.2977 17.5938 14.625 17.5938Z" ></path>
  </symbol>
   <symbol xmlns="http://www.w3.org/2000/svg" viewBox="0 0 24 24" id="poweroff">
    <path d="M16.5371 2.92734C16.5084 2.91289 16.4765 2.90604 16.4444 2.90747C16.4123 2.90889 16.3811 2.91854 16.3538 2.93548C16.3265 2.95242 16.304 2.97608 16.2885 3.00421C16.273 3.03233 16.265 3.06397 16.2652 3.09609V4.60078C16.2652 4.72969 16.3332 4.84922 16.441 4.91953C16.9695 5.2522 17.4586 5.64376 17.8988 6.08672C18.6652 6.85547 19.2675 7.74844 19.6871 8.74219C20.1209 9.77093 20.3433 10.8765 20.341 11.993C20.341 13.1203 20.1207 14.2148 19.6871 15.2438C19.268 16.2361 18.6607 17.1378 17.8988 17.8992C17.1394 18.6631 16.2381 19.2713 15.2457 19.6898C14.2191 20.1258 13.1246 20.3461 11.9996 20.3461C10.8746 20.3461 9.78004 20.1258 8.75347 19.6898C7.76099 19.2713 6.85975 18.6631 6.10035 17.8992C5.3384 17.1378 4.73112 16.2361 4.31207 15.2438C3.8782 14.215 3.65581 13.1095 3.65816 11.993C3.65816 10.8656 3.87847 9.77109 4.31207 8.74219C4.7316 7.74844 5.33394 6.85547 6.10035 6.08672C6.54566 5.64141 7.03316 5.25234 7.55816 4.91953C7.66832 4.85156 7.73394 4.72969 7.73394 4.60078V3.09375C7.73394 2.95312 7.58629 2.86406 7.46207 2.925C4.18316 4.575 1.92144 7.95234 1.87457 11.8664C1.80894 17.4633 6.38629 22.1133 11.9808 22.125C17.5824 22.1367 22.1246 17.5945 22.1246 11.9906C22.1246 8.025 19.8511 4.59141 16.5371 2.92734ZM11.2496 13.125H12.7496C12.8527 13.125 12.9371 13.0406 12.9371 12.9375V2.0625C12.9371 1.95937 12.8527 1.875 12.7496 1.875H11.2496C11.1464 1.875 11.0621 1.95937 11.0621 2.0625V12.9375C11.0621 13.0406 11.1464 13.125 11.2496 13.125Z" fill="black"></path>
  </symbol>
   <symbol xmlns="http://www.w3.org/2000/svg" viewBox="0 0 12 14" id="fire">
    <path d="M11.0328 6.33149C10.7295 5.64876 10.2885 5.03598 9.7375 4.53149L9.28281 4.1143C9.26737 4.10052 9.24879 4.09075 9.22869 4.08583C9.2086 4.08091 9.1876 4.081 9.16754 4.08609C9.14749 4.09118 9.12899 4.10112 9.11367 4.11503C9.09835 4.12894 9.08668 4.14639 9.07969 4.16586L8.87656 4.74868C8.75 5.1143 8.51719 5.48774 8.1875 5.85493C8.16563 5.87836 8.14063 5.88461 8.12344 5.88618C8.10625 5.88774 8.07969 5.88461 8.05625 5.86274C8.03437 5.84399 8.02344 5.81586 8.025 5.78774C8.08281 4.84711 7.80156 3.78618 7.18594 2.63149C6.67656 1.67211 5.96875 0.923675 5.08437 0.4018L4.43906 0.0221128C4.35469 -0.0278872 4.24688 0.0377378 4.25156 0.136175L4.28594 0.886175C4.30937 1.39868 4.25 1.8518 4.10938 2.22836C3.9375 2.6893 3.69062 3.11743 3.375 3.5018C3.15535 3.76893 2.90639 4.01055 2.63281 4.22211C1.97391 4.72862 1.43815 5.37763 1.06562 6.12055C0.694022 6.86995 0.500453 7.69502 0.5 8.53149C0.5 9.26899 0.645312 9.98305 0.932812 10.6565C1.21042 11.3049 1.61103 11.8933 2.1125 12.3893C2.61875 12.8893 3.20625 13.283 3.86094 13.5565C4.53906 13.8409 5.25781 13.9846 6 13.9846C6.74219 13.9846 7.46094 13.8409 8.13906 13.5581C8.79214 13.2862 9.38601 12.8898 9.8875 12.3909C10.3938 11.8909 10.7906 11.3065 11.0672 10.658C11.3543 9.98645 11.5015 9.26342 11.5 8.53305C11.5 7.77055 11.3438 7.02993 11.0328 6.33149ZM9.14062 11.633C8.30156 12.4643 7.1875 12.9206 6 12.9206C4.8125 12.9206 3.69844 12.4643 2.85938 11.633C2.02344 10.8034 1.5625 9.70336 1.5625 8.53305C1.5625 7.85336 1.71563 7.2018 2.01719 6.59555C2.31094 6.00336 2.74844 5.47368 3.27969 5.06586C3.6185 4.80679 3.9258 4.50893 4.19531 4.17836C4.58594 3.7018 4.89219 3.17055 5.10469 2.60024C5.19185 2.36498 5.25519 2.12158 5.29375 1.87368C5.67031 2.22055 5.98594 2.6393 6.25 3.12993C6.77187 4.10805 7.0125 4.97836 6.96562 5.71899C6.95443 5.89342 6.98291 6.06812 7.04895 6.22996C7.11498 6.39179 7.21684 6.53656 7.34688 6.65336C7.45956 6.75515 7.59135 6.83354 7.73458 6.88397C7.87782 6.93439 8.02965 6.95586 8.18125 6.94711C8.48906 6.93149 8.77187 6.79555 8.97812 6.56586C9.18594 6.33305 9.36563 6.09555 9.51562 5.85336C9.73438 6.13305 9.91719 6.43774 10.0625 6.76586C10.3109 7.32524 10.4375 7.92055 10.4375 8.53305C10.4375 9.70336 9.97656 10.8049 9.14062 11.633Z"></path>
  </symbol>
</svg>